<svg xmlns="http://www.w3.org/2000/svg" width="32" height="32" viewBox="0 0 32 32">
  <!-- shadow -->
  <ellipse cx="16" cy="28" rx="8" ry="2.5" fill="#000" opacity="0.35"/>
  <!-- boots -->
  <rect x="10" y="24" width="5" height="4" rx="1" fill="#4a3020"/>
  <rect x="17" y="24" width="5" height="4" rx="1" fill="#4a3020"/>
  <!-- legs -->
  <rect x="11" y="18" width="4" height="7" fill="#2a4060"/>
  <rect x="17" y="18" width="4" height="7" fill="#2a4060"/>
  <!-- body / armor -->
  <rect x="9" y="11" width="14" height="9" rx="2" fill="#d4a030"/>
  <rect x="11" y="12" width="10" height="6" rx="1" fill="#f0c040"/>
  <!-- cape -->
  <path d="M9 12 L6 22 L10 18 Z" fill="#c03030"/>
  <!-- head -->
  <circle cx="16" cy="8" r="5" fill="#f0c8a0"/>
  <!-- hair -->
  <path d="M11 7 Q16 2 21 7 L20 9 Q16 6 12 9 Z" fill="#3a2818"/>
  <!-- eyes -->
  <circle cx="14" cy="8" r="0.8" fill="#1a1010"/>
  <circle cx="18" cy="8" r="0.8" fill="#1a1010"/>
  <!-- sword -->
  <rect x="24" y="8" width="2" height="12" fill="#c0d0e0"/>
  <rect x="22" y="18" width="6" height="2" fill="#8a6030"/>
</svg>
