<svg xmlns="http://www.w3.org/2000/svg" width="32" height="32" viewBox="0 0 32 32" shape-rendering="crispEdges">
  <ellipse cx="16" cy="30" rx="7" ry="2" fill="#000" opacity="0.3"/>
  <rect x="10" y="25" width="5" height="4" fill="#3a2820"/>
  <rect x="17" y="25" width="5" height="4" fill="#3a2820"/>
  <rect x="10" y="18" width="5" height="8" fill="#5a4030"/>
  <rect x="17" y="18" width="5" height="8" fill="#5a4030"/>
  <rect x="9" y="12" width="14" height="8" rx="1" fill="#c85030"/>
  <rect x="11" y="13" width="10" height="5" fill="#e07040"/>
  <rect x="6" y="13" width="3" height="7" fill="#c85030"/>
  <rect x="23" y="13" width="3" height="7" fill="#c85030"/>
  <rect x="11" y="6" width="10" height="8" fill="#e8b890"/>
  <path d="M11 7 Q16 2 21 7 L20 10 Q16 7 12 10 Z" fill="#3a2010"/>
  <rect x="13" y="9" width="2" height="2" fill="#1a1010"/>
  <rect x="17" y="9" width="2" height="2" fill="#1a1010"/>
</svg>
